<svg width="505" height="453" viewBox="0 0 505 453" fill="none" xmlns="http://www.w3.org/2000/svg">
<path d="M6.912 431V368.6H47.232V382.424H23.424V392.216H43.776V406.04H23.424V417.176H48.192V431H6.912ZM49.9065 431L64.3065 406.04L50.6745 383H68.3385L71.7945 389.72C72.4345 391.064 73.0745 392.44 73.7145 393.848C74.3545 395.256 74.9945 396.632 75.6345 397.976H76.0185C76.4665 396.632 76.9465 395.256 77.4585 393.848C77.9705 392.44 78.4505 391.064 78.8985 389.72L81.2025 383H98.2905L84.6585 407.96L99.0585 431H81.3945L77.5545 424.28C76.8505 422.936 76.1465 421.56 75.4425 420.152C74.7385 418.744 74.0345 417.368 73.3305 416.024H72.9465C72.4345 417.368 71.8905 418.744 71.3145 420.152C70.7385 421.496 70.1945 422.872 69.6825 424.28L66.9945 431H49.9065ZM105.974 447.896V383H119.414L120.566 387.416H120.95C122.742 385.752 124.758 384.408 126.998 383.384C129.302 382.36 131.638 381.848 134.006 381.848C137.782 381.848 141.046 382.872 143.798 384.92C146.614 386.904 148.79 389.72 150.326 393.368C151.862 397.016 152.63 401.304 152.63 406.232C152.63 411.736 151.67 416.44 149.75 420.344C147.83 424.184 145.334 427.128 142.262 429.176C139.254 431.16 136.054 432.152 132.662 432.152C130.678 432.152 128.758 431.736 126.902 430.904C125.11 430.072 123.446 428.888 121.91 427.352L122.486 434.648V447.896H105.974ZM128.63 418.712C129.91 418.712 131.094 418.328 132.182 417.56C133.27 416.792 134.134 415.512 134.774 413.72C135.414 411.928 135.734 409.496 135.734 406.424C135.734 403.8 135.478 401.688 134.966 400.088C134.454 398.424 133.686 397.208 132.662 396.44C131.702 395.672 130.486 395.288 129.014 395.288C127.798 395.288 126.678 395.544 125.654 396.056C124.63 396.568 123.574 397.464 122.486 398.744V416.408C123.446 417.24 124.438 417.848 125.462 418.232C126.55 418.552 127.606 418.712 128.63 418.712ZM161.662 431V383H175.102L176.254 391.256H176.638C178.43 387.992 180.542 385.624 182.974 384.152C185.47 382.616 187.902 381.848 190.27 381.848C191.742 381.848 192.926 381.944 193.822 382.136C194.782 382.264 195.582 382.488 196.222 382.808L193.15 396.824C192.318 396.632 191.55 396.504 190.846 396.44C190.142 396.312 189.246 396.248 188.158 396.248C186.43 396.248 184.606 396.856 182.686 398.072C180.83 399.224 179.326 401.304 178.174 404.312V431H161.662ZM223.121 432.152C218.449 432.152 214.225 431.16 210.449 429.176C206.737 427.192 203.793 424.344 201.617 420.632C199.441 416.856 198.353 412.312 198.353 407C198.353 401.816 199.441 397.368 201.617 393.656C203.857 389.88 206.737 386.968 210.257 384.92C213.777 382.872 217.489 381.848 221.393 381.848C226.129 381.848 230.033 382.904 233.105 385.016C236.241 387.064 238.545 389.848 240.017 393.368C241.553 396.888 242.321 400.792 242.321 405.08C242.321 406.488 242.225 407.864 242.033 409.208C241.905 410.488 241.777 411.416 241.649 411.992H211.409L211.217 401.24H228.305C228.305 399.384 227.825 397.784 226.865 396.44C225.969 395.032 224.273 394.328 221.777 394.328C220.433 394.328 219.089 394.712 217.745 395.48C216.465 396.184 215.409 397.464 214.577 399.32C213.745 401.176 213.393 403.736 213.521 407C213.649 410.52 214.321 413.208 215.537 415.064C216.753 416.856 218.225 418.072 219.953 418.712C221.745 419.352 223.569 419.672 225.425 419.672C227.089 419.672 228.721 419.448 230.321 419C231.985 418.488 233.681 417.752 235.409 416.792L240.593 426.584C238.033 428.376 235.153 429.752 231.953 430.712C228.753 431.672 225.809 432.152 223.121 432.152ZM266.165 432.152C263.093 432.152 259.829 431.544 256.373 430.328C252.981 429.048 250.037 427.224 247.541 424.856L254.453 415.64C256.693 417.368 258.869 418.552 260.981 419.192C263.093 419.768 264.949 420.056 266.549 420.056C268.277 420.056 269.493 419.832 270.197 419.384C270.965 418.872 271.349 418.136 271.349 417.176C271.349 416.344 270.965 415.64 270.197 415.064C269.429 414.488 268.373 413.976 267.029 413.528C265.749 413.016 264.245 412.44 262.517 411.8C260.277 410.968 258.229 409.912 256.373 408.632C254.517 407.288 253.013 405.688 251.861 403.832C250.773 401.976 250.229 399.832 250.229 397.4C250.229 392.664 251.989 388.888 255.509 386.072C259.029 383.256 263.605 381.848 269.237 381.848C272.885 381.848 276.213 382.456 279.221 383.672C282.229 384.824 284.789 386.328 286.901 388.184L279.989 397.4C278.197 396.12 276.437 395.224 274.709 394.712C272.981 394.2 271.349 393.944 269.812 393.944C268.405 393.944 267.349 394.168 266.645 394.616C265.941 395.064 265.589 395.736 265.589 396.632C265.589 397.336 265.845 397.944 266.357 398.456C266.933 398.968 267.829 399.48 269.045 399.992C270.325 400.44 271.989 400.984 274.036 401.624C276.469 402.392 278.645 403.448 280.565 404.792C282.485 406.072 283.989 407.672 285.077 409.592C286.165 411.448 286.709 413.656 286.709 416.216C286.709 419.224 285.909 421.944 284.309 424.376C282.773 426.744 280.469 428.632 277.397 430.04C274.389 431.448 270.645 432.152 266.165 432.152ZM309.571 432.152C306.499 432.152 303.235 431.544 299.779 430.328C296.387 429.048 293.443 427.224 290.947 424.856L297.859 415.64C300.099 417.368 302.275 418.552 304.387 419.192C306.499 419.768 308.355 420.056 309.955 420.056C311.683 420.056 312.899 419.832 313.603 419.384C314.371 418.872 314.755 418.136 314.755 417.176C314.755 416.344 314.371 415.64 313.603 415.064C312.835 414.488 311.779 413.976 310.435 413.528C309.155 413.016 307.651 412.44 305.923 411.8C303.683 410.968 301.635 409.912 299.779 408.632C297.923 407.288 296.419 405.688 295.267 403.832C294.179 401.976 293.635 399.832 293.635 397.4C293.635 392.664 295.395 388.888 298.915 386.072C302.435 383.256 307.011 381.848 312.643 381.848C316.291 381.848 319.619 382.456 322.627 383.672C325.635 384.824 328.195 386.328 330.307 388.184L323.395 397.4C321.603 396.12 319.843 395.224 318.115 394.712C316.387 394.2 314.755 393.944 313.219 393.944C311.811 393.944 310.755 394.168 310.051 394.616C309.347 395.064 308.995 395.736 308.995 396.632C308.995 397.336 309.251 397.944 309.763 398.456C310.339 398.968 311.235 399.48 312.451 399.992C313.731 400.44 315.395 400.984 317.443 401.624C319.875 402.392 322.051 403.448 323.971 404.792C325.891 406.072 327.395 407.672 328.483 409.592C329.571 411.448 330.115 413.656 330.115 416.216C330.115 419.224 329.315 421.944 327.715 424.376C326.179 426.744 323.875 428.632 320.803 430.04C317.795 431.448 314.051 432.152 309.571 432.152ZM339.537 431V368.6H356.049V417.176H379.665V431H339.537ZM390.443 431V368.6H414.059C418.539 368.6 422.667 369.208 426.443 370.424C430.219 371.576 433.259 373.624 435.563 376.568C437.867 379.512 439.019 383.576 439.019 388.76C439.019 393.752 437.867 397.816 435.563 400.952C433.259 404.088 430.219 406.392 426.443 407.864C422.667 409.336 418.539 410.072 414.059 410.072H406.955V431H390.443ZM406.955 397.016H412.907C416.171 397.016 418.635 396.312 420.299 394.904C422.027 393.496 422.891 391.448 422.891 388.76C422.891 386.072 422.027 384.216 420.299 383.192C418.635 382.168 416.171 381.656 412.907 381.656H406.955V397.016ZM424.043 431L411.083 405.752L422.219 394.808L442.475 431H424.043ZM469.376 432.152C465.28 432.152 461.152 431.448 456.992 430.04C452.896 428.568 449.152 426.264 445.76 423.128L454.4 412.376C456.64 414.168 459.136 415.544 461.888 416.504C464.64 417.464 467.264 417.944 469.76 417.944C472.256 417.944 474.048 417.56 475.136 416.792C476.288 416.024 476.864 414.936 476.864 413.528C476.864 412.504 476.512 411.704 475.808 411.128C475.168 410.488 474.208 409.912 472.928 409.4C471.712 408.824 470.208 408.184 468.416 407.48L460.64 404.312C458.4 403.352 456.32 402.104 454.4 400.568C452.48 398.968 450.944 397.048 449.792 394.808C448.64 392.504 448.064 389.848 448.064 386.84C448.064 383.256 449.056 380.024 451.04 377.144C453.024 374.2 455.744 371.864 459.2 370.136C462.72 368.344 466.752 367.448 471.296 367.448C475.072 367.448 478.752 368.12 482.336 369.464C485.984 370.744 489.216 372.696 492.031 375.32L483.392 386.072C481.28 384.6 479.2 383.512 477.152 382.808C475.104 382.04 473.152 381.656 471.296 381.656C469.312 381.656 467.712 382.008 466.496 382.712C465.344 383.416 464.768 384.472 464.768 385.88C464.768 386.84 465.12 387.672 465.824 388.376C466.592 389.016 467.68 389.624 469.088 390.2C470.496 390.712 472.128 391.352 473.984 392.12L481.568 395.096C484.192 396.12 486.4 397.432 488.192 399.032C489.984 400.568 491.36 402.424 492.32 404.6C493.28 406.776 493.76 409.304 493.76 412.184C493.76 415.704 492.8 419 490.88 422.072C489.024 425.08 486.272 427.512 482.624 429.368C478.976 431.224 474.56 432.152 469.376 432.152Z" fill="black"/>
<g clip-path="url(#clip0_2109_91)">
<path d="M229.73 9.48424C259.888 6.26534 291.215 16.0881 313.971 36.1743C317.343 39.3166 321.941 42.1906 322.529 47.1659C323.385 52.799 318.16 58.3682 312.444 57.6401C307.329 57.3974 304.589 52.4924 300.878 49.7078C287.453 38.3075 270.739 30.784 253.252 28.5742C225.911 24.7421 196.985 33.8751 177.129 53.1375C174.9 55.4814 172.122 57.8062 168.679 57.6657C163.94 57.9275 159.585 53.9422 159.176 49.2671C158.888 46.5272 159.872 43.6276 161.82 41.6669C179.83 23.5286 204.247 11.809 229.73 9.48424Z" fill="black"/>
<path d="M229.761 40.7537C254.689 37.1388 281.168 45.9972 298.514 64.3398C301.65 67.9611 301.235 74.0157 297.595 77.1452C294.586 80.1086 289.483 80.5238 286.035 78.0904C284.214 76.7365 282.65 75.0887 280.951 73.6006C271.403 65.3681 259.249 60.2076 246.692 59.1091C229.978 57.3911 212.619 62.9922 200.095 74.2137C197.808 76.1872 195.765 78.8249 192.622 79.4189C187.686 80.7729 182.148 77.1324 181.28 72.1189C180.641 69.1107 181.599 65.7641 183.853 63.6501C196.059 51.2215 212.498 43.0529 229.761 40.7537Z" fill="black"/>
<path d="M234.833 71.3844C250.008 69.3407 266.02 74.9929 276.507 86.1633C279.611 89.6887 279.406 95.6859 275.874 98.8665C272.611 102.386 266.48 102.513 263.05 99.1666C259.045 95.2196 254.083 92.1604 248.59 90.8064C238.365 88.0984 226.914 91.1066 219.365 98.5343C217.021 101.178 213.151 102.245 209.778 101.223C206.777 100.348 204.292 97.8573 203.385 94.8748C202.568 91.7708 203.2 88.2262 205.48 85.8759C213.214 77.8797 223.765 72.6234 234.833 71.3844Z" fill="black"/>
<path d="M233.109 110.363C237.158 107.769 242.408 107.239 246.904 108.894C252.409 110.835 256.567 116.079 257.193 121.884C257.864 126.84 255.839 131.892 252.269 135.328C253.182 141.313 254.115 147.297 255.028 153.281C251.464 153.275 247.907 153.294 244.343 153.268C243.666 148.676 242.938 144.097 242.242 139.511C241.878 139.531 241.15 139.575 240.786 139.595C239.994 144.135 239.368 148.708 238.652 153.268C235.095 153.294 231.531 153.275 227.974 153.281C228.887 147.291 229.82 141.306 230.733 135.322C227.84 132.492 225.873 128.654 225.713 124.573C225.349 118.946 228.319 113.3 233.109 110.363ZM239.144 119.048C235.6 120.632 235.261 126.131 238.589 128.137C241.801 130.5 246.859 127.849 246.757 123.864C247 120.07 242.478 117.19 239.144 119.048Z" fill="black"/>
<path d="M132.952 148.191C136.465 144.582 141.325 142.302 146.37 142.072C153.773 141.581 161.2 145.604 164.879 152.036C168.481 158.058 168.564 165.972 165.09 172.065C163.493 175.009 160.971 177.276 158.633 179.626C153.626 184.634 148.606 189.628 143.618 194.654C138.738 199.547 135.96 206.412 136.024 213.323C136.03 222.456 135.973 231.595 136.056 240.728C136.101 249.031 141.178 255.954 144.493 263.222C151.435 256.318 158.314 249.357 165.275 242.478C171.643 236.226 182.283 235.197 189.768 240.026C197.451 244.643 201.2 254.702 198.365 263.222C197.241 267.035 194.763 270.26 191.901 272.943C181.989 282.836 172.109 292.754 162.197 302.641C158.818 306.071 155.171 309.315 152.566 313.403C149.832 317.503 148.101 322.191 147.105 327H136.439C137.851 316.986 142.507 307.457 149.647 300.284C161.226 288.673 172.824 277.088 184.423 265.502C186.377 263.663 188.255 261.472 188.599 258.707C189.385 254.613 187.041 250.27 183.311 248.501C179.645 246.604 174.894 247.587 172.096 250.557C166.974 255.648 161.877 260.776 156.768 265.879C152.649 269.915 148.81 274.527 143.375 276.845C136.126 280.268 127.926 278.844 120.198 279.138C120.191 275.632 120.191 272.132 120.198 268.625C125.218 268.523 130.257 268.862 135.264 268.389C133.246 264.257 131.138 260.163 129.12 256.031C126.642 250.909 125.416 245.212 125.473 239.527C125.486 230.592 125.441 221.651 125.492 212.716C125.556 203.385 129.35 194.175 135.864 187.508C141.976 181.274 148.235 175.181 154.348 168.948C157.132 166.144 157.943 161.546 156.117 158.014C154.392 154.405 150.26 152.068 146.275 152.681C143.873 152.924 141.727 154.246 140.086 155.964C131.7 164.381 123.276 172.754 114.897 181.185C109.577 186.575 106.013 193.652 104.831 201.137C103.222 211.138 101.67 221.146 100.08 231.148C99.4601 234.967 99.0896 238.825 99.1024 242.702C99.0896 266.326 99.1024 289.957 99.096 313.581C99.0769 318.084 99.4728 322.606 100.488 327H89.7267C88.8581 322.58 88.5388 318.065 88.5452 313.562C88.5452 290.372 88.5515 267.182 88.5452 243.992C88.3088 233.671 90.8061 223.586 92.1984 213.425C93.7184 205.122 94.1399 196.487 97.4993 188.638C99.9135 182.82 103.567 177.557 108.025 173.125C116.327 164.803 124.643 156.5 132.952 148.191Z" fill="black"/>
<path d="M315.88 157.637C317.598 149.871 324.336 143.542 332.205 142.322C338.495 141.217 345.227 143.35 349.736 147.885C358.365 156.494 366.999 165.097 375.596 173.744C382.743 180.974 387.373 190.554 388.778 200.607C390.419 211.062 392.093 221.504 393.715 231.959C394.673 238.059 394.424 244.241 394.456 250.385C394.456 268.268 394.456 286.151 394.456 304.027C394.398 311.691 394.814 319.438 393.268 327H382.513C384.295 319.681 383.854 312.113 383.905 304.653C383.905 286.764 383.905 268.875 383.905 250.985C383.873 244.854 384.129 238.678 383.139 232.598C381.446 221.887 379.798 211.171 378.048 200.473C376.682 192.464 372.447 185.106 366.54 179.588C358.428 171.515 350.388 163.385 342.257 155.338C338.764 151.8 332.505 151.665 328.966 155.204C325.173 158.531 324.885 164.88 328.315 168.565C332.403 172.825 336.662 176.919 340.814 181.127C344.608 185.023 348.791 188.632 351.703 193.281C355.663 199.381 357.617 206.681 357.528 213.936C357.483 223.42 357.643 232.917 357.445 242.402C357.113 251.937 351.665 260.029 347.737 268.389C352.744 268.862 357.783 268.523 362.803 268.625C362.803 272.132 362.803 275.632 362.803 279.138C356.429 278.883 349.902 279.828 343.65 278.257C339.109 277.081 334.97 274.572 331.655 271.276C324.604 264.283 317.636 257.206 310.56 250.232C307.079 246.738 300.884 246.61 297.359 250.11C293.405 253.527 293.252 260.157 296.95 263.816C309.046 276.009 321.258 288.086 333.361 300.278C340.488 307.463 345.15 316.986 346.555 327H335.896C334.472 319.802 331.068 312.988 325.894 307.757C313.709 295.462 301.395 283.302 289.222 271.008C282.835 264.525 281.903 253.604 287.012 246.093C291.853 238.448 302.123 234.974 310.605 238.116C315.848 239.789 319.386 244.177 323.174 247.888C328.283 252.997 333.386 258.113 338.515 263.203C341.823 255.948 346.881 249.031 346.945 240.741C347.035 231.602 346.971 222.462 346.977 213.323C347.034 206.412 344.256 199.553 339.39 194.655C333.246 188.434 326.999 182.309 320.868 176.082C316.231 171.292 314.315 164.113 315.88 157.637Z" fill="black"/>
<path d="M178.215 157.854C220.405 157.854 262.596 157.854 304.787 157.854C304.793 161.367 304.793 164.886 304.787 168.405C262.615 168.418 220.437 168.379 178.266 168.424C178.144 164.899 178.234 161.373 178.215 157.854Z" fill="black"/>
<path d="M174.766 179.333C182.118 177.538 190.267 181.894 192.917 188.97C194.999 194.105 194.073 200.287 190.586 204.592C186.62 209.74 179.307 211.924 173.17 209.759C166.655 207.658 161.999 200.958 162.415 194.105C162.581 187.131 167.952 180.763 174.766 179.333ZM175.967 190.011C172.339 191.525 171.924 197.1 175.277 199.138C178.305 201.38 183.101 199.183 183.427 195.44C184.117 191.512 179.505 188.134 175.967 190.011Z" fill="black"/>
<path d="M209.855 178.956C230.95 178.949 252.052 178.943 273.147 178.956C273.141 193.019 273.153 207.083 273.141 221.146C252.045 221.146 230.956 221.146 209.861 221.146C209.842 207.083 209.861 193.019 209.855 178.956ZM220.412 189.507C220.405 196.532 220.405 203.564 220.412 210.596C234.469 210.596 248.533 210.596 262.59 210.596C262.596 203.564 262.596 196.532 262.59 189.507C248.533 189.5 234.469 189.5 220.412 189.507Z" fill="black"/>
<path d="M301.83 179.237C306.582 178.304 311.704 179.722 315.299 182.967C319.789 186.882 321.705 193.447 319.981 199.157C318.314 205.122 312.866 209.791 306.703 210.468C301.332 211.177 295.711 208.846 292.397 204.573C288.929 200.3 288.009 194.156 290.053 189.053C291.956 184.052 296.561 180.195 301.83 179.237ZM302.896 189.864C299.243 191.084 298.362 196.462 301.408 198.799C304.155 201.322 309.117 199.713 309.89 196.072C311.103 192.144 306.652 188.185 302.896 189.864Z" fill="black"/>
<path d="M165.434 220.693C172.709 216.49 181.465 214.977 189.736 216.433C198.415 217.876 206.469 222.609 212.019 229.43C219.025 237.873 221.938 249.561 219.587 260.297C216.624 275.012 203.914 287.115 189.033 289.254C188.509 285.78 187.979 282.306 187.456 278.838C194.583 277.714 201.174 273.588 205.211 267.597C209.445 261.523 210.882 253.617 209.062 246.444C207.21 238.818 201.736 232.195 194.615 228.906C187.213 225.387 178.15 225.649 170.984 229.641C163.825 233.486 158.664 240.779 157.438 248.82C153.97 248.245 150.489 247.76 147.021 247.236C148.675 236.181 155.688 226.147 165.434 220.693Z" fill="black"/>
<path d="M277.535 223.178C286.151 216.676 297.717 214.319 308.191 216.944C322.408 220.297 333.885 232.77 335.98 247.236C332.505 247.773 329.037 248.316 325.563 248.814C324.369 241.092 319.585 234.054 312.847 230.113C306.282 226.147 297.94 225.343 290.73 227.942C283.96 230.311 278.282 235.581 275.408 242.152C272.183 249.318 272.445 257.94 276.149 264.876C279.943 272.24 287.351 277.573 295.539 278.831C295.034 282.287 294.46 285.735 294 289.203C283.117 287.677 273.23 280.798 267.706 271.34C263.516 264.302 261.817 255.833 262.973 247.728C264.257 238.02 269.66 228.977 277.535 223.178Z" fill="black"/>
<path d="M236.232 252.793C239.745 252.786 243.258 252.786 246.77 252.793C246.777 256.305 246.777 259.824 246.77 263.337C243.258 263.343 239.745 263.343 236.232 263.337C236.226 259.824 236.226 256.305 236.232 252.793Z" fill="black"/>
<path d="M204.58 294.99C229.194 294.983 253.808 294.983 278.423 294.99C278.423 302.015 278.423 309.047 278.423 316.079C292.486 316.085 306.55 316.072 320.614 316.085C320.62 319.54 320.614 322.996 320.614 326.457C291.905 326.751 263.184 326.457 234.469 326.591C216.159 326.527 197.848 326.617 179.537 326.559C173.821 326.432 168.092 326.84 162.389 326.406C162.389 322.964 162.383 319.521 162.389 316.085C176.453 316.072 190.516 316.085 204.58 316.079C204.58 309.047 204.58 302.015 204.58 294.99ZM215.13 305.541C215.137 309.053 215.13 312.566 215.137 316.079C232.713 316.079 250.289 316.079 267.866 316.079C267.872 312.566 267.866 309.053 267.872 305.541C250.289 305.528 232.707 305.528 215.13 305.541Z" fill="black"/>
</g>
<defs>
<clipPath id="clip0_2109_91">
<rect width="327" height="327" fill="white" transform="translate(78)"/>
</clipPath>
</defs>
</svg>
