<svg width="911" height="277" viewBox="0 0 911 277" fill="none" xmlns="http://www.w3.org/2000/svg">
<path d="M272.856 226V142.544H325.08V158.416H291.672V175.184H320.088V190.928H291.672V210.128H326.36V226H272.856ZM329.292 226L348.748 192.976L330.444 162.512H350.668L356.3 172.752C357.153 174.544 358.007 176.379 358.86 178.256C359.799 180.048 360.737 181.84 361.676 183.632H362.188C362.871 181.84 363.596 180.048 364.364 178.256C365.132 176.379 365.857 174.544 366.54 172.752L370.892 162.512H390.348L371.916 195.152L391.5 226H371.276L365.132 215.504C364.108 213.712 363.084 211.877 362.06 210C361.121 208.123 360.14 206.288 359.116 204.496H358.604C357.836 206.288 357.025 208.123 356.172 210C355.319 211.792 354.508 213.627 353.74 215.504L348.748 226H329.292ZM401.57 249.552V162.512H416.93L418.21 168.784H418.722C421.197 166.48 424.013 164.603 427.17 163.152C430.327 161.701 433.527 160.976 436.77 160.976C441.89 160.976 446.285 162.299 449.954 164.944C453.709 167.589 456.567 171.344 458.53 176.208C460.578 181.072 461.602 186.747 461.602 193.232C461.602 200.485 460.322 206.672 457.762 211.792C455.202 216.912 451.874 220.837 447.778 223.568C443.767 226.213 439.458 227.536 434.85 227.536C432.205 227.536 429.559 226.981 426.914 225.872C424.354 224.677 421.965 223.013 419.746 220.88L420.386 230.992V249.552H401.57ZM430.498 212.176C432.631 212.176 434.594 211.536 436.386 210.256C438.263 208.976 439.714 206.971 440.738 204.24C441.762 201.424 442.274 197.84 442.274 193.488C442.274 189.648 441.847 186.491 440.994 184.016C440.226 181.456 439.031 179.536 437.41 178.256C435.789 176.976 433.741 176.336 431.266 176.336C429.389 176.336 427.554 176.805 425.762 177.744C424.055 178.597 422.263 180.048 420.386 182.096V208.08C422.093 209.531 423.799 210.597 425.506 211.28C427.298 211.877 428.962 212.176 430.498 212.176ZM474.945 226V162.512H490.305L491.585 173.648H492.097C494.401 169.381 497.132 166.224 500.289 164.176C503.532 162.043 506.817 160.976 510.145 160.976C511.937 160.976 513.43 161.104 514.625 161.36C515.82 161.531 516.844 161.829 517.697 162.256L514.113 178.256C513.089 178 512.108 177.829 511.169 177.744C510.23 177.573 509.078 177.488 507.713 177.488C505.324 177.488 502.806 178.341 500.161 180.048C497.601 181.755 495.468 184.784 493.761 189.136V226H474.945ZM553.111 227.536C547.052 227.536 541.591 226.213 536.727 223.568C531.863 220.923 528.023 217.125 525.207 212.176C522.391 207.227 520.983 201.253 520.983 194.256C520.983 187.344 522.391 181.413 525.207 176.464C528.108 171.515 531.863 167.717 536.471 165.072C541.079 162.341 545.9 160.976 550.935 160.976C556.994 160.976 562.028 162.341 566.039 165.072C570.05 167.717 573.036 171.344 574.999 175.952C576.962 180.56 577.943 185.723 577.943 191.44C577.943 193.061 577.858 194.683 577.687 196.304C577.516 197.84 577.346 199.077 577.175 200.016H535.575L535.319 186.96H561.815C561.815 183.632 561.004 180.901 559.383 178.768C557.762 176.549 555.074 175.44 551.319 175.44C549.271 175.44 547.266 175.995 545.303 177.104C543.34 178.213 541.719 180.133 540.439 182.864C539.159 185.595 538.562 189.392 538.647 194.256C538.732 199.035 539.586 202.789 541.207 205.52C542.914 208.251 545.047 210.213 547.607 211.408C550.167 212.517 552.855 213.072 555.671 213.072C558.146 213.072 560.492 212.731 562.711 212.048C565.015 211.28 567.276 210.256 569.495 208.976L575.639 220.496C572.482 222.715 568.898 224.464 564.887 225.744C560.876 226.939 556.951 227.536 553.111 227.536ZM609.633 227.536C605.452 227.536 601.142 226.725 596.705 225.104C592.268 223.483 588.47 221.136 585.313 218.064L593.249 207.44C596.15 209.744 599.009 211.365 601.825 212.304C604.726 213.157 607.5 213.584 610.145 213.584C612.961 213.584 615.009 213.115 616.289 212.176C617.569 211.152 618.209 209.829 618.209 208.208C618.209 206.757 617.612 205.563 616.417 204.624C615.308 203.685 613.814 202.875 611.937 202.192C610.145 201.424 608.097 200.613 605.793 199.76C602.721 198.651 599.905 197.243 597.345 195.536C594.785 193.829 592.694 191.781 591.073 189.392C589.537 187.003 588.769 184.144 588.769 180.816C588.769 174.843 590.988 170.064 595.425 166.48C599.948 162.811 605.836 160.976 613.089 160.976C617.697 160.976 621.878 161.744 625.633 163.28C629.473 164.731 632.758 166.651 635.489 169.04L627.425 179.536C625.121 177.915 622.817 176.763 620.513 176.08C618.209 175.312 615.948 174.928 613.729 174.928C611.254 174.928 609.42 175.397 608.225 176.336C607.03 177.275 606.433 178.469 606.433 179.92C606.433 181.115 606.86 182.139 607.713 182.992C608.566 183.845 609.846 184.656 611.553 185.424C613.345 186.107 615.564 186.875 618.209 187.728C621.452 188.837 624.396 190.245 627.041 191.952C629.772 193.573 631.905 195.621 633.441 198.096C634.977 200.571 635.745 203.557 635.745 207.056C635.745 210.896 634.721 214.352 632.673 217.424C630.71 220.496 627.809 222.971 623.969 224.848C620.129 226.64 615.35 227.536 609.633 227.536ZM666.383 227.536C662.202 227.536 657.892 226.725 653.455 225.104C649.018 223.483 645.22 221.136 642.063 218.064L649.999 207.44C652.9 209.744 655.759 211.365 658.575 212.304C661.476 213.157 664.25 213.584 666.895 213.584C669.711 213.584 671.759 213.115 673.039 212.176C674.319 211.152 674.959 209.829 674.959 208.208C674.959 206.757 674.362 205.563 673.167 204.624C672.058 203.685 670.564 202.875 668.687 202.192C666.895 201.424 664.847 200.613 662.543 199.76C659.471 198.651 656.655 197.243 654.095 195.536C651.535 193.829 649.444 191.781 647.823 189.392C646.287 187.003 645.519 184.144 645.519 180.816C645.519 174.843 647.738 170.064 652.175 166.48C656.698 162.811 662.586 160.976 669.839 160.976C674.447 160.976 678.628 161.744 682.383 163.28C686.223 164.731 689.508 166.651 692.239 169.04L684.175 179.536C681.871 177.915 679.567 176.763 677.263 176.08C674.959 175.312 672.698 174.928 670.479 174.928C668.004 174.928 666.17 175.397 664.975 176.336C663.78 177.275 663.183 178.469 663.183 179.92C663.183 181.115 663.61 182.139 664.463 182.992C665.316 183.845 666.596 184.656 668.303 185.424C670.095 186.107 672.314 186.875 674.959 187.728C678.202 188.837 681.146 190.245 683.791 191.952C686.522 193.573 688.655 195.621 690.191 198.096C691.727 200.571 692.495 203.557 692.495 207.056C692.495 210.896 691.471 214.352 689.423 217.424C687.46 220.496 684.559 222.971 680.719 224.848C676.879 226.64 672.1 227.536 666.383 227.536ZM705.981 226V142.544H724.797V210.128H757.821V226H705.981ZM772.231 226V142.544H802.311C808.199 142.544 813.575 143.355 818.439 144.976C823.303 146.512 827.186 149.2 830.087 153.04C832.988 156.795 834.439 161.957 834.439 168.528C834.439 174.928 832.988 180.133 830.087 184.144C827.186 188.155 823.303 191.141 818.439 193.104C813.575 194.981 808.199 195.92 802.311 195.92H791.047V226H772.231ZM791.047 180.944H800.775C805.724 180.944 809.479 179.92 812.039 177.872C814.684 175.739 816.007 172.624 816.007 168.528C816.007 164.432 814.684 161.573 812.039 159.952C809.479 158.331 805.724 157.52 800.775 157.52H791.047V180.944ZM817.415 226L798.855 191.056L811.911 178.896L838.535 226H817.415ZM874.453 227.536C868.906 227.536 863.445 226.555 858.069 224.592C852.693 222.544 847.872 219.472 843.605 215.376L853.589 203.088C856.576 205.648 859.946 207.653 863.701 209.104C867.541 210.555 871.296 211.28 874.965 211.28C878.89 211.28 881.792 210.555 883.669 209.104C885.632 207.653 886.613 205.691 886.613 203.216C886.613 201.424 886.101 200.016 885.077 198.992C884.138 197.883 882.773 196.901 880.981 196.048C879.189 195.195 877.056 194.256 874.581 193.232L863.701 188.752C860.885 187.472 858.154 185.851 855.509 183.888C852.949 181.84 850.858 179.365 849.237 176.464C847.701 173.477 846.933 169.936 846.933 165.84C846.933 161.232 848.17 157.093 850.645 153.424C853.205 149.669 856.704 146.683 861.141 144.464C865.664 142.16 870.826 141.008 876.629 141.008C881.664 141.008 886.528 141.904 891.221 143.696C895.914 145.488 900.01 148.091 903.509 151.504L893.525 163.664C890.794 161.616 887.978 160.037 885.077 158.928C882.261 157.819 879.445 157.264 876.629 157.264C873.386 157.264 870.784 157.947 868.821 159.312C866.944 160.592 866.005 162.427 866.005 164.816C866.005 166.437 866.56 167.845 867.669 169.04C868.778 170.149 870.314 171.131 872.277 171.984C874.24 172.752 876.373 173.648 878.677 174.672L889.429 179.024C892.842 180.389 895.744 182.096 898.133 184.144C900.608 186.192 902.528 188.667 903.893 191.568C905.258 194.384 905.941 197.755 905.941 201.68C905.941 206.288 904.704 210.555 902.229 214.48C899.754 218.405 896.17 221.563 891.477 223.952C886.784 226.341 881.109 227.536 874.453 227.536Z" fill="black"/>
<g clip-path="url(#clip0_2109_109)">
<path d="M116.001 7.25097C139.058 4.79004 163.008 12.2998 180.406 27.6562C182.984 30.0586 186.5 32.2559 186.949 36.0596C187.603 40.3662 183.609 44.624 179.239 44.0674C175.328 43.8818 173.233 40.1318 170.396 38.0029C160.132 29.2871 147.354 23.5352 133.985 21.8457C113.082 18.916 90.9673 25.8984 75.7866 40.625C74.0825 42.417 71.9585 44.1943 69.3266 44.0869C65.7036 44.2871 62.3735 41.2402 62.061 37.666C61.8413 35.5713 62.5932 33.3545 64.0825 31.8555C77.852 17.9883 96.519 9.02832 116.001 7.25097Z" fill="black"/>
<path d="M116.025 31.1573C135.083 28.3936 155.327 35.166 168.589 49.1895C170.986 51.958 170.669 56.5869 167.886 58.9795C165.586 61.2451 161.685 61.5625 159.048 59.7022C157.656 58.667 156.46 57.4073 155.161 56.2696C147.861 49.9756 138.569 46.0303 128.97 45.1905C116.191 43.877 102.92 48.1592 93.3448 56.7383C91.5967 58.2471 90.0342 60.2637 87.6319 60.7178C83.8574 61.753 79.6241 58.9698 78.96 55.1367C78.4717 52.8369 79.2041 50.2783 80.9278 48.6621C90.2588 39.1602 102.827 32.9151 116.025 31.1573Z" fill="black"/>
<path d="M119.903 54.5752C131.505 53.0127 143.746 57.334 151.764 65.8741C154.137 68.5694 153.98 73.1543 151.28 75.586C148.785 78.2764 144.098 78.3741 141.476 75.8155C138.414 72.7979 134.62 70.459 130.421 69.4239C122.603 67.3536 113.849 69.6534 108.077 75.3321C106.285 77.3536 103.326 78.169 100.748 77.3877C98.4531 76.7188 96.5537 74.8145 95.8603 72.5342C95.2353 70.1612 95.7187 67.4512 97.4619 65.6543C103.375 59.5411 111.441 55.5225 119.903 54.5752Z" fill="black"/>
<path d="M118.585 84.375C121.68 82.3926 125.694 81.9873 129.132 83.252C133.341 84.7364 136.519 88.7451 136.998 93.1836C137.51 96.9727 135.963 100.835 133.233 103.462C133.931 108.037 134.644 112.612 135.343 117.188C132.618 117.183 129.898 117.197 127.174 117.178C126.656 113.667 126.099 110.166 125.567 106.66C125.289 106.675 124.732 106.709 124.454 106.724C123.848 110.195 123.37 113.691 122.823 117.178C120.103 117.197 117.379 117.183 114.659 117.188C115.357 112.607 116.07 108.032 116.768 103.457C114.556 101.294 113.052 98.3594 112.93 95.2393C112.652 90.9375 114.923 86.6211 118.585 84.375ZM123.199 91.0157C120.489 92.2266 120.23 96.4307 122.774 97.9639C125.23 99.7705 129.097 97.7442 129.019 94.6973C129.205 91.7969 125.748 89.5948 123.199 91.0157Z" fill="black"/>
<path d="M42.0122 113.296C44.6978 110.537 48.4136 108.794 52.271 108.618C57.9302 108.242 63.6089 111.318 66.4214 116.235C69.1753 120.84 69.2388 126.89 66.5826 131.548C65.3619 133.799 63.4331 135.532 61.646 137.329C57.8179 141.157 53.98 144.976 50.1665 148.818C46.4361 152.559 44.312 157.808 44.3609 163.091C44.3658 170.073 44.3218 177.061 44.3853 184.043C44.4195 190.391 48.3013 195.684 50.8355 201.24C56.1431 195.962 61.4019 190.64 66.7242 185.381C71.5923 180.601 79.7271 179.814 85.4497 183.506C91.3238 187.036 94.19 194.727 92.022 201.24C91.1626 204.155 89.2681 206.621 87.0806 208.672C79.5025 216.235 71.9488 223.818 64.3706 231.377C61.7876 233.999 58.9995 236.479 57.0074 239.604C54.9175 242.739 53.5943 246.323 52.8326 250H44.6783C45.7574 242.344 49.3169 235.059 54.7759 229.575C63.6285 220.698 72.4956 211.841 81.3628 202.983C82.857 201.577 84.2925 199.902 84.5562 197.788C85.1568 194.658 83.3648 191.338 80.5132 189.985C77.7105 188.535 74.0777 189.287 71.939 191.558C68.023 195.449 64.1265 199.37 60.2202 203.271C57.0708 206.357 54.1363 209.883 49.981 211.655C44.439 214.272 38.1695 213.184 32.2613 213.408C32.2564 210.728 32.2564 208.052 32.2613 205.371C36.0992 205.293 39.9517 205.552 43.7798 205.19C42.2369 202.031 40.6255 198.901 39.0826 195.742C37.188 191.826 36.2505 187.471 36.2945 183.125C36.3042 176.294 36.2701 169.458 36.3091 162.627C36.358 155.493 39.2583 148.452 44.2388 143.354C48.9117 138.589 53.6968 133.931 58.3697 129.165C60.4986 127.021 61.1187 123.506 59.7222 120.806C58.4038 118.047 55.2447 116.26 52.1978 116.728C50.3619 116.914 48.7212 117.925 47.4663 119.238C41.0552 125.674 34.6148 132.075 28.2085 138.52C24.1412 142.642 21.4165 148.052 20.5132 153.774C19.2828 161.421 18.0962 169.072 16.8804 176.719C16.4068 179.639 16.1236 182.588 16.1333 185.552C16.1236 203.613 16.1333 221.68 16.1285 239.741C16.1138 243.184 16.4165 246.641 17.1929 250H8.96538C8.30131 246.621 8.05717 243.169 8.06206 239.727C8.06206 221.997 8.06694 204.268 8.06206 186.538C7.88139 178.647 9.79057 170.937 10.855 163.169C12.0171 156.821 12.3394 150.22 14.9078 144.219C16.7535 139.77 19.5464 135.747 22.9546 132.358C29.3023 125.996 35.6597 119.648 42.0122 113.296Z" fill="black"/>
<path d="M181.866 120.518C183.179 114.58 188.33 109.741 194.346 108.809C199.156 107.964 204.302 109.595 207.749 113.062C214.346 119.644 220.948 126.221 227.52 132.832C232.984 138.359 236.524 145.684 237.598 153.369C238.853 161.362 240.132 169.346 241.372 177.339C242.105 182.002 241.914 186.729 241.939 191.426C241.939 205.098 241.939 218.77 241.939 232.437C241.895 238.296 242.212 244.219 241.031 250H232.808C234.17 244.404 233.833 238.618 233.872 232.915C233.872 219.238 233.872 205.562 233.872 191.885C233.848 187.197 234.043 182.476 233.286 177.827C231.992 169.639 230.733 161.445 229.395 153.267C228.35 147.144 225.113 141.519 220.596 137.3C214.395 131.128 208.247 124.912 202.032 118.76C199.361 116.055 194.575 115.952 191.87 118.657C188.97 121.201 188.75 126.055 191.372 128.872C194.497 132.129 197.754 135.259 200.928 138.477C203.828 141.455 207.027 144.214 209.253 147.769C212.281 152.432 213.775 158.013 213.706 163.56C213.672 170.811 213.794 178.071 213.643 185.322C213.389 192.612 209.224 198.799 206.221 205.191C210.049 205.552 213.902 205.293 217.74 205.371C217.74 208.052 217.74 210.728 217.74 213.408C212.866 213.213 207.876 213.936 203.096 212.734C199.624 211.836 196.46 209.917 193.926 207.398C188.535 202.051 183.208 196.641 177.798 191.309C175.137 188.638 170.401 188.54 167.705 191.216C164.683 193.828 164.566 198.897 167.393 201.694C176.641 211.016 185.977 220.249 195.23 229.57C200.679 235.064 204.243 242.344 205.318 250H197.168C196.079 244.497 193.477 239.287 189.522 235.288C180.205 225.889 170.791 216.592 161.485 207.192C156.602 202.236 155.889 193.887 159.795 188.145C163.496 182.3 171.348 179.644 177.832 182.046C181.841 183.325 184.546 186.68 187.442 189.517C191.348 193.423 195.249 197.334 199.17 201.226C201.7 195.679 205.567 190.391 205.616 184.053C205.684 177.066 205.635 170.078 205.64 163.091C205.684 157.808 203.56 152.564 199.839 148.818C195.142 144.063 190.366 139.38 185.679 134.619C182.134 130.957 180.669 125.469 181.866 120.518Z" fill="black"/>
<path d="M76.6167 120.684C108.873 120.684 141.128 120.684 173.384 120.684C173.389 123.369 173.389 126.06 173.384 128.75C141.143 128.76 108.897 128.73 76.6558 128.765C76.563 126.069 76.6314 123.374 76.6167 120.684Z" fill="black"/>
<path d="M73.9804 137.104C79.6005 135.732 85.831 139.062 87.8574 144.473C89.4492 148.398 88.7412 153.125 86.0752 156.416C83.0429 160.352 77.4521 162.021 72.7597 160.366C67.7793 158.76 64.2197 153.638 64.5371 148.398C64.6641 143.066 68.7705 138.198 73.9804 137.104ZM74.8984 145.269C72.125 146.426 71.8076 150.688 74.3711 152.246C76.6855 153.96 80.3525 152.28 80.6015 149.419C81.1289 146.416 77.6035 143.833 74.8984 145.269Z" fill="black"/>
<path d="M100.806 136.816C116.934 136.812 133.067 136.807 149.195 136.816C149.19 147.568 149.2 158.32 149.19 169.072C133.062 169.072 116.939 169.072 100.811 169.072C100.797 158.32 100.811 147.568 100.806 136.816ZM108.878 144.883C108.873 150.254 108.873 155.63 108.878 161.006C119.625 161.006 130.377 161.006 141.124 161.006C141.129 155.63 141.129 150.254 141.124 144.883C130.377 144.878 119.625 144.878 108.878 144.883Z" fill="black"/>
<path d="M171.124 137.031C174.757 136.318 178.673 137.402 181.422 139.883C184.854 142.876 186.319 147.895 185.001 152.261C183.726 156.821 179.561 160.391 174.849 160.908C170.743 161.45 166.446 159.668 163.912 156.401C161.26 153.135 160.557 148.437 162.12 144.536C163.575 140.713 167.095 137.764 171.124 137.031ZM171.939 145.156C169.146 146.089 168.472 150.2 170.801 151.987C172.901 153.916 176.695 152.685 177.286 149.902C178.214 146.899 174.81 143.872 171.939 145.156Z" fill="black"/>
<path d="M66.8457 168.726C72.4073 165.513 79.1016 164.355 85.4248 165.469C92.0606 166.572 98.2178 170.19 102.461 175.405C107.817 181.86 110.044 190.796 108.247 199.004C105.981 210.254 96.2647 219.507 84.8877 221.143C84.4874 218.486 84.0821 215.83 83.6817 213.179C89.1309 212.319 94.17 209.165 97.2559 204.585C100.493 199.941 101.592 193.896 100.2 188.413C98.7842 182.583 94.5996 177.52 89.1553 175.005C83.4961 172.314 76.5674 172.515 71.0889 175.566C65.6153 178.506 61.67 184.082 60.7325 190.229C58.0811 189.79 55.42 189.419 52.7686 189.019C54.0332 180.566 59.3946 172.895 66.8457 168.726Z" fill="black"/>
<path d="M152.55 170.625C159.137 165.654 167.979 163.853 175.987 165.859C186.856 168.423 195.631 177.959 197.232 189.019C194.576 189.429 191.925 189.844 189.268 190.225C188.355 184.321 184.698 178.94 179.547 175.928C174.527 172.896 168.15 172.28 162.638 174.268C157.462 176.079 153.121 180.107 150.924 185.132C148.458 190.61 148.658 197.202 151.49 202.505C154.39 208.135 160.055 212.212 166.314 213.174C165.929 215.815 165.489 218.452 165.138 221.104C156.817 219.937 149.259 214.678 145.035 207.446C141.832 202.065 140.533 195.591 141.417 189.395C142.398 181.973 146.529 175.059 152.55 170.625Z" fill="black"/>
<path d="M120.973 193.267C123.658 193.262 126.344 193.262 129.029 193.267C129.034 195.952 129.034 198.643 129.029 201.328C126.344 201.333 123.658 201.333 120.973 201.328C120.968 198.643 120.968 195.952 120.973 193.267Z" fill="black"/>
<path d="M96.7734 225.527C115.592 225.522 134.41 225.522 153.229 225.527C153.229 230.898 153.229 236.274 153.229 241.65C163.98 241.655 174.732 241.646 185.484 241.655C185.489 244.297 185.484 246.939 185.484 249.585C163.536 249.81 141.578 249.585 119.625 249.688C105.626 249.639 91.6269 249.707 77.6279 249.663C73.2578 249.565 68.8779 249.878 64.5176 249.546C64.5176 246.914 64.5127 244.282 64.5176 241.655C75.2695 241.646 86.0215 241.655 96.7734 241.65C96.7734 236.274 96.7734 230.898 96.7734 225.527ZM104.84 233.594C104.845 236.279 104.84 238.965 104.845 241.65C118.282 241.65 131.72 241.65 145.157 241.65C145.162 238.965 145.157 236.279 145.162 233.594C131.72 233.584 118.277 233.584 104.84 233.594Z" fill="black"/>
</g>
<defs>
<clipPath id="clip0_2109_109">
<rect width="250" height="250" fill="white"/>
</clipPath>
</defs>
</svg>
